<svg width="380" height="380" viewBox="0 0 380 380" fill="none" xmlns="http://www.w3.org/2000/svg">
<path d="M113.208 274.984H97.75V149.575C102.511 145.984 107.628 142.907 113.208 140.777V274.984ZM159.583 274.984H175.042V131.606C171.502 135.725 168.194 140.124 165.442 144.927L159.583 142.067V274.984ZM128.667 274.984H144.125V137.451C136.272 136.223 134.494 136.674 128.667 137.295V274.984ZM66.8333 274.984H82.2917V165.865C77.4687 172.984 73.7123 180.958 71.5945 189.725L66.8333 186.896V274.984ZM20.4583 193.378C11.0906 201.881 5 214.425 5 228.632C5 242.839 11.0906 255.383 20.4583 263.886V193.378V193.378ZM312.296 182.948C309.143 138.85 275.134 104 233.196 104C217.397 104 202.836 109.098 190.5 117.632V274.984H331.001C355.842 274.984 376 253.331 376 226.704C376 191.995 342.486 168.072 312.296 182.948V182.948ZM51.375 182.528C46.7066 182.155 43.2439 182.062 35.9167 184.425V272.855C42.8111 275.077 45.7482 275 51.375 275V182.528Z" fill="#E92EFB"/>
</svg>
